<?xml version="1.0" encoding="utf-8"?>
<!-- Generator: Adobe Illustrator 26.5.0, SVG Export Plug-In . SVG Version: 6.00 Build 0)  -->
<svg version="1.1" id="Layer_1" xmlns="http://www.w3.org/2000/svg" xmlns:xlink="http://www.w3.org/1999/xlink" x="0px" y="0px"
	 viewBox="0 0 1366 768" style="enable-background:new 0 0 1366 768;" xml:space="preserve">
<style type="text/css">
	.st0{fill:#C2AC4E;}
	.st1{font-family:'Nunito-Regular';}
	.st2{font-size:122.0569px;}
	.st3{fill:#D4D8D7;}
	.st4{fill:#82A2A7;}
	.st5{fill:#1F6455;}
</style>
<text transform="matrix(1 0 0 1 990.4852 670.8768)" class="st0 st1 st2">da ria</text>
<g>
	<path class="st3" d="M33.6,431.1c0,0,14.7,17.9,15.4,19.3c0.7,1.5,8.1,7.9,6.7-4.8c0,0-15-22-17-20.3
		C38.6,425.3,32.8,424.4,33.6,431.1z"/>
	<g>
		<path class="st3" d="M232.2,474.3c1.4,0.1,2.6,0.8,3.5,2.1c0.9,1.3,1.3,2.9,1.3,4.6c-0.1,1.8-0.6,3.2-1.7,4.4
			c-1.2,1.3-2.7,3-4.6,5c-1.9,2-5.3,5.3-10.3,9.9c-4.9,4.5-10,8.7-15.1,12.4s-11.1,7.4-18,11.1c-6.9,3.7-13.6,6.2-19.9,7.7
			c-6.4,1.5-13.1,1.6-20.1,0.4c-7-1.2-13.5-4.2-19.4-8.9c-5.5-4.4-9.8-10.1-13.1-17.1c-0.9-2-2.3-3-4.2-3.2
			c-1.9-0.2-3.4,0.7-4.4,2.7c-4.6,8.8-9.6,16.2-14.9,22.2c-5.4,6-10.4,9.1-14.9,9.3h-0.2c-2.3-0.2-4.5-1.1-6.6-2.8
			c-2-1.7-3.5-3.9-4.4-6.7c-3.9-12.2-3.3-24,1.8-35.6c4.3-11.2,10.3-20.8,18.1-28.6c7.8-7.9,16.5-13.3,26.3-16.2
			c1.9-0.6,3.6-0.1,5,1.7c1.4,1.8,1.8,3.9,1.2,6.2c-0.6,2.4-1.9,3.9-3.8,4.5c-8.2,2.4-15.6,7-22.1,13.5s-11.6,14.7-15.2,24.3
			c-3.7,7.8-4.3,15.9-1.9,24.4c0.8,1.6,1.4,2.4,1.8,2.4c2.2,1.8,6.5-3.2,12.9-15.1s12.1-24.7,17.2-38.5c1-2.9,2.9-4.1,5.5-3.7
			c2.5,0.5,3.9,2.3,4.3,5.4c0.1,0.8,0.3,1.9,0.5,3.3s0.8,3.9,1.7,7.6s2,7.1,3.1,10.4s2.9,6.7,5.1,10.4c2.2,3.6,4.6,6.5,7.2,8.6
			c4.9,4.1,10.5,6.5,16.7,7.3s12.1,0.4,17.8-1.2c5.7-1.6,11.6-4.2,17.9-7.7c6.3-3.5,11.7-7,16.2-10.6c4.6-3.6,9.1-7.4,13.5-11.5
			s7.5-7,9.1-8.7s2.8-3,3.6-4C229.6,474.7,230.8,474.2,232.2,474.3z"/>
		<path class="st3" d="M513.7,472.2c1.4-0.2,2.7,0.3,3.8,1.5c1.1,1.1,1.7,2.6,1.9,4.3s-0.2,3.3-1,4.8c-1,1.6-2.5,3.7-4.4,6.3
			s-5.3,6.7-10.3,12.2s-10,10.5-15.2,14.9s-11.5,8.3-18.9,11.7s-14.5,5.1-21.4,5.1c-9.8,0-18.8-3.1-27.2-9.3
			c-7.3-5.8-12.5-13.7-15.6-23.6c-2-5.2-3.5-8.5-4.7-9.9s-2.9-1.8-5.1-1.3c-2.6,0.5-7.1,4.5-13.4,12.1s-11.4,15.3-15.1,23.3
			c-1.4,2.9-3.4,3.9-6,2.9c-2.5-1-3.8-3.2-3.6-6.6c0.4-9.8-0.7-18-3.2-24.6c-2.5-6.7-5.3-10.2-8.3-10.7c-1.7-0.3-3.6-0.1-5.8,0.7
			s-5,2.6-8.5,5.2s-7.9,7.2-13.1,13.6s-10.9,14.5-17,24.3c-1.7,2.6-3.8,3.2-6.3,1.7s-3.4-3.8-2.7-7.1l9.4-51.4
			c0.3-1.8,1-3.2,2.2-4.1s2.5-1.3,3.9-0.9s2.4,1.4,3.2,2.9c0.8,1.5,1,3.1,0.6,4.8c-2.5,13.3-3.7,20.3-3.7,21
			c-0.1,0.8,0.1,1.4,0.7,1.7c0.6,0.3,1.1,0.1,1.7-0.7c5.3-6.5,10.2-11.7,14.7-15.5s8.3-6.2,11.5-7.2c3.3-1,5.8-1.5,7.6-1.5
			s3.9,0.3,6.3,1c4,2.3,7.5,5.6,10.3,10s4.5,9.4,5.2,14.9c0.1,0.8,0.5,1.3,1.3,1.6c0.7,0.2,1.3,0,1.7-0.6
			c4.4-6.2,8.9-11.5,13.5-15.9s8.4-6.9,11.5-7.6c2.9-0.5,5.4-0.4,7.7,0.4c2.3,0.7,4.3,2.2,6,4.5s3,4.3,3.8,6c0.9,1.7,1.9,4.1,3,7.2
			c2.4,7.6,6.2,13.7,11.5,18.3c5.5,4.1,11.2,6.4,17.3,7.1s11.7,0.1,16.8-1.6c5.1-1.7,10.4-4.4,15.7-8c5.3-3.7,9.9-7.3,13.6-10.9
			s7.3-7.5,10.9-11.7c3.5-4.2,5.9-7.1,7.1-8.8c1.2-1.6,2.2-2.9,2.8-3.9C511.2,473.2,512.3,472.4,513.7,472.2z"/>
		<path class="st3" d="M668.8,474.3c1.4,0.1,2.6,0.8,3.5,2.1c0.9,1.3,1.3,2.9,1.3,4.6c-0.1,1.8-0.6,3.2-1.7,4.4
			c-1.2,1.3-2.7,3-4.6,5c-1.9,2-5.3,5.3-10.3,9.9c-5,4.5-10,8.7-15,12.4c-5.1,3.7-11.1,7.4-18,11.1c-6.9,3.7-13.6,6.2-19.9,7.7
			c-6.4,1.5-13.1,1.6-20.1,0.4c-7-1.2-13.5-4.2-19.3-8.9c-5.5-4.4-9.8-10.1-13.1-17.1c-0.9-2-2.3-3-4.2-3.2s-3.4,0.7-4.4,2.7
			c-4.6,8.8-9.5,16.2-15,22.2c-5.4,6-10.4,9.1-15,9.3h-0.2c-2.4-0.2-4.5-1.1-6.5-2.8s-3.5-3.9-4.4-6.7c-3.9-12.2-3.3-24,1.8-35.6
			c4.3-11.2,10.3-20.8,18.1-28.6c7.8-7.9,16.5-13.3,26.3-16.2c2-0.6,3.6-0.1,5,1.7c1.4,1.8,1.8,3.9,1.2,6.2
			c-0.6,2.4-1.9,3.9-3.8,4.5c-8.2,2.4-15.6,7-22.1,13.5s-11.6,14.7-15.2,24.3c-3.6,7.8-4.3,15.9-2,24.4c0.8,1.6,1.4,2.4,1.8,2.4
			c2.2,1.8,6.5-3.2,12.9-15.1s12.1-24.7,17.2-38.5c1-2.9,2.9-4.1,5.5-3.7c2.5,0.5,3.9,2.3,4.3,5.4c0.1,0.8,0.3,1.9,0.5,3.3
			s0.8,3.9,1.7,7.6s2,7.1,3.1,10.4s2.9,6.7,5.1,10.4c2.2,3.6,4.6,6.5,7.2,8.6c5,4.1,10.5,6.5,16.7,7.3s12.1,0.4,17.8-1.2
			c5.7-1.6,11.6-4.2,17.9-7.7c6.3-3.5,11.7-7,16.2-10.6c4.6-3.6,9.1-7.4,13.5-11.5s7.5-7,9.1-8.7s2.8-3,3.6-4
			C666.1,474.7,667.3,474.2,668.8,474.3z"/>
		<path class="st3" d="M831.8,469.5c1.4,0,2.6,0.6,3.6,2c1,1.3,1.5,2.8,1.5,4.5s-0.5,3.2-1.6,4.5c-12.6,15.3-28.2,27-46.7,35.2
			S753.1,528,737.8,528c-7.4,0.5-14.6-1.2-21.5-5.1c-3-2.1-5.4-4.5-7.2-7.1s-3-5.4-3.5-8.4s-0.8-5.7-0.9-8.2
			c-0.1-2.4,0.4-5.2,1.3-8.4c0.9-3.2,1.7-5.6,2.2-7.3c0.6-1.7,1.4-3.9,2.4-6.5c0.4-1,0.1-1.5-1-1.7c-0.5,0-1.2,0.3-2.2,1
			c-7.2,4.9-14.9,7.1-23.1,6.6c-3.7,0.2-7.2-0.7-10.8-2.7c-1.3,0.5-2.6,0.3-3.9-0.5c-2.1-1.3-3-3.4-2.7-6.3c-2-2.9-3.3-6.3-4.1-10
			c-1.6-6.7-1.4-13.2,0.4-19.8s5-11.9,9.6-16.1c5.5-4.1,9.8-4.2,12.9-0.5c4.3,5,2.9,17.6-4.3,37.8c-0.3,0.8-0.1,1.9,0.6,3.3
			c0.7,1.4,1.4,2.1,2.3,2.1c7.6,0,14.7-2.4,21.3-7.1c2-1.5,3.5-2.5,4.7-3c1.2-0.6,2.7-0.8,4.7-0.7s3.8,0.9,5.5,2.6
			c1.7,1.6,2.6,3.7,2.7,6.3s-0.1,4.8-0.7,6.7c-0.6,1.9-1.5,4.4-2.8,7.7c-3.3,7.5-4.9,13.5-4.8,17.9c0.1,4.5,2.2,8.2,6.5,11.3
			c2.6,2,6.8,3.1,12.7,3.4c5.9,0.3,12.8-0.3,20.7-2c8-1.6,16.2-4.1,24.6-7.3c8.5-3.2,17.1-7.9,25.8-14s16.3-13,22.7-20.8
			C829.1,470.1,830.4,469.5,831.8,469.5z M672.5,458.1c2.3-6.2,4.2-12.6,5.5-19.3C673.1,444,671.3,450.4,672.5,458.1z"/>
		<path class="st3" d="M963.2,471.5c1,1.1,1.6,2.6,1.7,4.4c0.1,1.8-0.4,3.2-1.5,4.4c-8.9,11.7-19.7,18.4-32.5,20.1
			s-24.6-1.9-35.3-10.9c-2.3-2-4.6-1.7-6.6,0.7c-7.7,9.4-14.9,19.4-21.5,29.7c-0.7,1-1,2-1.2,3.2c-3.5,26.2-8.8,51.9-15.9,77.2
			s-13.8,40.5-20,45.7c-1.8,1.6-3.8,2.4-5.9,2.4c-2.7,0-5-1.2-6.8-3.7c-4.3-5.7-6.2-12.4-5.7-20.2c0.3-13,4.6-29.2,12.9-48.6
			c8.3-19.4,18.7-38.9,31.1-58.4c0.7-1.1,1-2.3,1.2-3.7c0.9-7.1,1.5-13.6,1.8-19.5c-8.3,20.2-16.5,31.3-24.6,33.4
			c-5.7,1.3-10.4-0.9-14.1-6.6c-1.7-2.3-2.7-5.3-3.1-9.2c-0.4-3.8-0.3-7.6,0.3-11.5c0.6-3.8,1.5-7.7,2.8-11.6
			c3.7-12.2,9.6-22.3,18-30.2c8.3-8,17.7-12.5,28.2-13.6c1.4-0.2,2.7,0.3,3.8,1.5c1.1,1.1,1.7,2.6,1.8,4.4s-0.4,3.4-1.3,4.8
			c-0.9,1.4-2.1,2.1-3.5,2.1c-8.5,1.1-16.1,4.9-22.8,11.3s-11.6,14.5-14.6,24.3c-2.6,6.2-3.2,12.6-2,19.3c1.6,2.1,3.1,2.9,4.5,2.4
			c3.8-0.8,8.2-6.3,13.1-16.6c5-10.2,9.1-21,12.3-32.2c0.8-2.8,2.3-4.1,4.7-4.1c2.3,0,4,1.3,4.9,3.9c1.3,5,2,10.2,2,15.6
			c0,1.6,0.1,3.1,0.4,4.4c0.3,1.3,0.7,2.5,1.3,3.6s1.5,1.4,2.7,0.7c1.2-0.6,2.8-2.2,4.6-4.6c0.8-1.1,3.1-4,6.8-8.5
			c1.8-2.1,4-3.2,6.5-3.4c2.5-0.2,4.8,0.7,6.9,2.7c8.6,8.6,18.4,12.5,29.4,11.6s20.4-6.4,28-16.5c0.9-1.3,2.1-2,3.5-2.1
			C960.9,469.6,962.1,470.2,963.2,471.5z M833,620.2c4.3-10.7,9.1-25.8,14.4-45.2c5.3-19.4,7.1-29.5,5.4-30.3
			c-1.3-0.7-4.4,4.4-9.3,15.1c-4.9,10.7-9.6,22.8-14.2,36.3c-4.6,13.5-6.9,23.1-7,28.8c-0.1,6.5,0.7,10.1,2.3,10.7
			c1,0.3,2-0.3,2.8-2c0.8-1.6,2.3-5.1,4.4-10.5C832.3,622,832.7,621,833,620.2z"/>
		<path class="st3" d="M1116.5,470.5c1.4,0.2,2.5,0.9,3.4,2.3s1.3,3,1.2,4.8s-0.8,3.2-1.9,4.4c-1.9,2-4.4,4.2-7.2,6.8
			c-2.9,2.6-8.4,7-16.6,13c-8.2,6.1-16.4,11.4-24.5,16c-8.2,4.5-17.9,8.7-29.4,12.4s-22.4,5.6-32.8,5.6c-13.3,0.2-26.1-2.8-38.3-9
			c-3.9-2-7.2-4.3-9.9-7s-4.7-5.3-6-7.8s-2.2-5.2-2.8-8s-0.8-5.3-0.8-7.4c0.1-2.1,0.3-4.2,0.7-6.3c1.4-7.6,4.8-15.2,10.2-22.7
			c5.3-7.5,11.3-13.3,17.9-17.5c6.6-4.2,12.5-6.2,17.7-5.9c3.5,0,6.5,1.5,9.1,4.6c2.5,3.1,3.9,6.9,4.2,11.5
			c0.7,7.8-2.9,14.9-10.6,21.2c-11.1,8.6-23.2,12.4-36.4,11.5c-0.7-0.2-1.2,0-1.8,0.5s-0.7,1.1-0.6,2c-0.9,8.3,3.4,14.8,12.9,19.5
			c8.5,4.4,17.6,7,27.4,7.7c9.8,0.7,18.9,0.1,27.4-1.8c8.5-2,17.1-5,26-9c8.9-4.1,16.4-8.2,22.8-12.3c6.3-4.1,12.4-8.5,18.4-13.2
			c5.9-4.6,10-7.9,12.1-9.9c2.2-2,3.7-3.4,4.6-4.4C1113.9,470.8,1115.2,470.3,1116.5,470.5z M968,478.1c-1.7,2.9-1,4.2,2.2,3.9
			c5.5-0.5,12.4-3.4,20.9-8.8c1.3-1,2.4-1.8,3.3-2.4c4-3.4,5.9-6.5,5.7-9.3c-0.1-1.8-0.5-3-1-3.5c-0.5-0.6-1.4-0.9-2.5-1.1
			c-4.2-0.3-9,1.5-14.6,5.6C976.5,466.5,971.8,471.7,968,478.1z"/>
		<path class="st3" d="M1323.2,472.2c1.4-0.2,2.7,0.3,3.8,1.5c1.1,1.1,1.7,2.6,1.9,4.3s-0.2,3.3-1,4.8c-1,1.6-2.5,3.7-4.4,6.3
			s-5.3,6.7-10.3,12.2s-10,10.5-15.2,14.9s-11.5,8.3-18.9,11.7s-14.5,5.1-21.4,5.1c-9.8,0-18.8-3.1-27.2-9.3
			c-7.3-5.8-12.5-13.7-15.6-23.6c-1.9-5.2-3.5-8.5-4.7-9.9s-2.9-1.8-5.1-1.3c-2.6,0.5-7.1,4.5-13.4,12.1s-11.4,15.3-15.2,23.3
			c-1.4,2.9-3.4,3.9-6,2.9c-2.5-1-3.8-3.2-3.6-6.6c0.4-9.8-0.7-18-3.2-24.6c-2.5-6.7-5.3-10.2-8.3-10.7c-1.7-0.3-3.6-0.1-5.8,0.7
			s-5,2.6-8.5,5.2s-7.9,7.2-13.1,13.6s-10.9,14.5-17,24.3c-1.7,2.6-3.8,3.2-6.3,1.7s-3.4-3.8-2.7-7.1l9.4-51.4
			c0.3-1.8,1-3.2,2.2-4.1s2.5-1.3,3.9-0.9s2.4,1.4,3.2,2.9c0.8,1.5,1,3.1,0.6,4.8c-2.5,13.3-3.7,20.3-3.7,21
			c-0.1,0.8,0.1,1.4,0.7,1.7c0.6,0.3,1.1,0.1,1.7-0.7c5.3-6.5,10.2-11.7,14.7-15.5s8.3-6.2,11.5-7.2c3.3-1,5.8-1.5,7.6-1.5
			s3.9,0.3,6.3,1c4,2.3,7.5,5.6,10.3,10s4.5,9.4,5.2,14.9c0.1,0.8,0.6,1.3,1.3,1.6c0.7,0.2,1.3,0,1.7-0.6
			c4.4-6.2,8.9-11.5,13.5-15.9s8.4-6.9,11.5-7.6c2.9-0.5,5.4-0.4,7.7,0.4c2.3,0.7,4.3,2.2,6,4.5s3,4.3,3.8,6s1.9,4.1,3,7.2
			c2.3,7.6,6.2,13.7,11.5,18.3c5.5,4.1,11.2,6.4,17.3,7.1s11.7,0.1,16.8-1.6c5.2-1.7,10.4-4.4,15.7-8c5.3-3.7,9.9-7.3,13.6-10.9
			s7.3-7.5,10.8-11.7s5.9-7.1,7.1-8.8c1.2-1.6,2.2-2.9,2.8-3.9C1320.7,473.2,1321.8,472.4,1323.2,472.2z"/>
	</g>
</g>
<path class="st4" d="M582.8,178.6c-82.9-0.4-122.7,29.8-139.9,67.9c-4.9,19-7.6,38.9-7.9,59.5c-0.3,27.9,4,54.8,12.2,79.9
	C433,267.3,625,199.4,740.7,270.4c79.6,48.9,149.7,68.2,187.5,75.7c1-6.8,1.8-13.8,2.2-20.8c-65.5-22.7-165.8-83.8-165.8-83.8
	C671.9,178.1,582.8,178.6,582.8,178.6z"/>
<path class="st5" d="M827.3,214l-104.5-75.4c-94-56.1-154.6-47.4-191.1-26.3c-16.2,12.5-30.7,26.9-43.4,42.9c-2.2,3.7-3.2,6-3.2,6
	C622.2,109.3,743,192.3,743,192.3c96.6,73.4,156.6,101.2,188,111.8c-0.2-8.4-0.7-16.6-1.7-24.8C881.3,259,827.3,214,827.3,214z"/>
<path class="st0" d="M634.5,69.4c0,0,93.3,20.3,151.9,83.3c48,51.5,114.1,83.4,136.5,93.3c-22.2-85-88.4-152.5-173.1-176.1
	C717.1,62.1,678.8,60.7,634.5,69.4z"/>
</svg>
